<svg width="30" height="30" viewBox="0 0 30 30" fill="none" xmlns="http://www.w3.org/2000/svg">
<path fill-rule="evenodd" clip-rule="evenodd" d="M13.25 7C12.7668 7 12.375 7.39797 12.375 7.88889C12.375 8.37981 12.7668 8.77778 13.25 8.77778H16.75C17.2332 8.77778 17.625 8.37981 17.625 7.88889C17.625 7.39797 17.2332 7 16.75 7H13.25ZM20.1329 11.4444C19.9816 11.1788 19.6989 11 19.375 11H10.625C10.3011 11 10.0184 11.1788 9.86706 11.4444H10.8034H19.1967H20.1329ZM8.875 13.2222H9.05329C9.05337 13.2791 9.05612 13.3364 9.06166 13.3943L9.76129 20.7047C9.84548 21.5844 10.3628 22.357 11.2061 22.574C12.045 22.7899 13.2985 23 15.0001 23C16.7016 23 17.9551 22.7899 18.794 22.574C19.6373 22.357 20.1546 21.5844 20.2388 20.7047L20.9385 13.3943C20.944 13.3364 20.9467 13.2791 20.9468 13.2222H21.125C21.6082 13.2222 22 12.8243 22 12.3333V11.8889C22 10.4161 20.8247 9.22222 19.375 9.22222H10.625C9.17525 9.22222 8 10.4161 8 11.8889V12.3333C8 12.8243 8.39175 13.2222 8.875 13.2222ZM11.5031 20.5327L10.8034 13.2222H19.1967L18.497 20.5327C18.4829 20.6803 18.4359 20.7743 18.4041 20.8171C18.3895 20.8368 18.3797 20.8439 18.3776 20.8454L18.3774 20.8455C18.3762 20.8464 18.3735 20.8483 18.3642 20.8507C17.6672 21.03 16.5582 21.2222 15.0001 21.2222C13.4419 21.2222 12.3329 21.03 11.6359 20.8507C11.6266 20.8483 11.6239 20.8464 11.6227 20.8455L11.6225 20.8454C11.6204 20.8439 11.6106 20.8368 11.596 20.8171C11.5642 20.7743 11.5172 20.6803 11.5031 20.5327Z" fill="#070830"/>
</svg>
