<svg width="24" height="24" viewBox="0 0 24 24" fill="none" xmlns="http://www.w3.org/2000/svg">
<path fill-rule="evenodd" clip-rule="evenodd" d="M18.353 10.5883C18.353 14.8766 14.8766 18.353 10.5883 18.353C6.29993 18.353 2.82354 14.8766 2.82354 10.5883C2.82354 6.29993 6.29993 2.82354 10.5883 2.82354C14.8766 2.82354 18.353 6.29993 18.353 10.5883ZM17.0106 19.0072C15.2292 20.3681 13.0031 21.1766 10.5883 21.1766C4.74053 21.1766 0 16.436 0 10.5883C0 4.74053 4.74053 0 10.5883 0C16.436 0 21.1766 4.74053 21.1766 10.5883C21.1766 13.0032 20.3681 15.2292 19.0071 17.0106L23.5865 21.59C24.1378 22.1413 24.1378 23.0352 23.5865 23.5865C23.0351 24.1378 22.1413 24.1378 21.5899 23.5865L17.0106 19.0072Z" fill="#070830"/>
</svg>
